<?xml version="1.0" encoding="UTF-8"?>
<svg xmlns="http://www.w3.org/2000/svg" xmlns:xlink="http://www.w3.org/1999/xlink" width="128px" height="128px" viewBox="0 0 128 128" version="1.1">
<defs>
<linearGradient id="linear0" gradientUnits="userSpaceOnUse" x1="384" y1="120" x2="416" y2="120" gradientTransform="matrix(0.25,0,0,0.25,12.000001,49)">
<stop offset="0" style="stop-color:rgb(90.980393%,90.588236%,89.411765%);stop-opacity:1;"/>
<stop offset="0.511049" style="stop-color:rgb(100%,100%,100%);stop-opacity:1;"/>
<stop offset="1" style="stop-color:rgb(76.078433%,74.901962%,72.941178%);stop-opacity:1;"/>
</linearGradient>
<linearGradient id="linear1" gradientUnits="userSpaceOnUse" x1="64.000008" y1="202.384827" x2="64.000008" y2="444.5" gradientTransform="matrix(1,0,0,1,0,-172)">
<stop offset="0" style="stop-color:rgb(63.921571%,27.843139%,72.941178%);stop-opacity:1;"/>
<stop offset="1" style="stop-color:rgb(75.294119%,38.039216%,79.607844%);stop-opacity:1;"/>
</linearGradient>
<filter id="alpha" filterUnits="objectBoundingBox" x="0%" y="0%" width="100%" height="100%">
  <feColorMatrix type="matrix" in="SourceGraphic" values="0 0 0 0 1 0 0 0 0 1 0 0 0 0 1 0 0 0 1 0"/>
</filter>
<mask id="mask0">
  <g filter="url(#alpha)">
<rect x="0" y="0" width="128" height="128" style="fill:rgb(0%,0%,0%);fill-opacity:0.15;stroke:none;"/>
  </g>
</mask>
<clipPath id="clip1">
  <rect x="0" y="0" width="192" height="152"/>
</clipPath>
<g id="surface88644" clip-path="url(#clip1)">
<path style="fill:none;stroke-width:2;stroke-linecap:butt;stroke-linejoin:miter;stroke:rgb(100%,100%,100%);stroke-opacity:1;stroke-miterlimit:4;" d="M 15 278 L 15 184 " transform="matrix(1,0,0,1,0,-172)"/>
</g>
<linearGradient id="linear2" gradientUnits="userSpaceOnUse" x1="384" y1="120" x2="416" y2="120" gradientTransform="matrix(0.25,0,0,0.25,12.000001,49)">
<stop offset="0" style="stop-color:rgb(90.980393%,90.588236%,89.411765%);stop-opacity:1;"/>
<stop offset="0.511049" style="stop-color:rgb(100%,100%,100%);stop-opacity:1;"/>
<stop offset="1" style="stop-color:rgb(76.078433%,74.901962%,72.941178%);stop-opacity:1;"/>
</linearGradient>
<linearGradient id="linear3" gradientUnits="userSpaceOnUse" x1="64.000008" y1="202.384827" x2="64.000008" y2="444.5" gradientTransform="matrix(1,0,0,1,0,-172)">
<stop offset="0" style="stop-color:rgb(63.921571%,27.843139%,72.941178%);stop-opacity:1;"/>
<stop offset="1" style="stop-color:rgb(75.294119%,38.039216%,79.607844%);stop-opacity:1;"/>
</linearGradient>
<mask id="mask2">
  <g filter="url(#alpha)">
<rect x="0" y="0" width="128" height="128" style="fill:rgb(0%,0%,0%);fill-opacity:0.15;stroke:none;"/>
  </g>
</mask>
<clipPath id="clip4">
  <rect x="0" y="0" width="192" height="152"/>
</clipPath>
<g id="surface88644" clip-path="url(#clip4)">
<path style="fill:none;stroke-width:2;stroke-linecap:butt;stroke-linejoin:miter;stroke:rgb(100%,100%,100%);stroke-opacity:1;stroke-miterlimit:4;" d="M 15 278 L 15 184 " transform="matrix(1,0,0,1,0,-172)"/>
</g>
<clipPath id="clip3">
  <rect x="0" y="0" width="128" height="128"/>
</clipPath>
<g id="surface88653" clip-path="url(#clip3)">
<path style=" stroke:none;fill-rule:nonzero;fill:rgb(50.588238%,23.921569%,61.176473%);fill-opacity:1;" d="M 12 32 L 12 116 L 108 116 C 112.433594 116 116 112.433594 116 108 L 116 40 C 116 35.566406 112.433594 32 108 32 Z M 12 32 "/>
<path style=" stroke:none;fill-rule:nonzero;fill:url(#linear2);" d="M 14 44 L 14 114 L 108 114 C 112.433594 114 116 110.433594 116 106 L 116 52 C 116 47.566406 112.433594 44 108 44 Z M 14 44 "/>
<path style=" stroke:none;fill-rule:nonzero;fill:rgb(50.588238%,23.921569%,61.176473%);fill-opacity:1;" d="M 12 14 L 12 108 L 108 108 C 112.433594 108 116 104.433594 116 100 L 116 22 C 116 17.566406 112.433594 14 108 14 Z M 12 14 "/>
<path style=" stroke:none;fill-rule:nonzero;fill:url(#linear3);" d="M 12 12 L 12 106 L 108 106 C 112.433594 106 116 102.433594 116 98 L 116 20 C 116 15.566406 112.433594 12 108 12 Z M 12 12 "/>
<path style=" stroke:none;fill-rule:nonzero;fill:rgb(50.588238%,23.921569%,61.176473%);fill-opacity:1;" d="M 84.984375 24.488281 C 81.085938 24.488281 77.148438 25.53125 74.472656 27.433594 L 77.011719 32.371094 C 78.777344 30.96875 81.449219 30.105469 84.03125 30.105469 C 87.835938 30.105469 89.964844 32.132812 89.964844 35.167969 L 82.933594 35.136719 C 75.503906 35.101562 72.46875 38.878906 72.46875 43.183594 C 72.46875 47.394531 75.570312 50.449219 81.277344 50.449219 C 84.855469 50.449219 88.652344 49.386719 89.964844 47.167969 L 89.964844 50.171875 L 97.464844 50.167969 L 97.464844 35.542969 C 97.464844 28.160156 92.410156 24.488281 84.984375 24.488281 Z M 83.339844 45.808594 C 80.847656 45.808594 79.355469 44.632812 79.355469 42.867188 C 79.355469 41.234375 80.394531 39.613281 83.703125 39.636719 L 89.964844 39.667969 L 89.964844 41.941406 C 89.964844 44.304688 85.695312 45.808594 83.339844 45.808594 Z M 83.339844 45.808594 "/>
<path style=" stroke:none;fill-rule:nonzero;fill:rgb(50.588238%,23.921569%,61.176473%);fill-opacity:1;" d="M 58 46 C 57.054688 46.773438 56.386719 47.050781 55.554688 47.050781 C 54.277344 47.050781 53.886719 46.277344 53.886719 43.84375 L 53.886719 33.054688 C 53.886719 30.179688 53.609375 28.574219 52.773438 27.246094 C 51.550781 25.253906 48.203125 24.203125 44.921875 24.203125 C 39.695312 24.203125 35.582031 26.914062 35.582031 30.398438 C 35.582031 31.671875 36.640625 32.777344 37.972656 32.777344 C 39.308594 32.777344 40.476562 31.671875 40.476562 30.457031 C 40.476562 30.234375 40.417969 29.957031 40.363281 29.570312 C 40.253906 29.074219 40.195312 28.628906 40.195312 28.242188 C 40.195312 26.75 41.976562 25.53125 44.199219 25.53125 C 46.921875 25.53125 48.871094 27.136719 48.871094 30.125 L 48.871094 34.523438 C 41.214844 36.769531 38.917969 37.371094 36.527344 39.472656 C 35.304688 40.578125 34.527344 42.460938 34.527344 44.285156 C 34.527344 47.769531 36.972656 50.203125 40.363281 50.203125 C 42.808594 50.203125 45.535156 49.042969 48.925781 46.164062 C 49.207031 49.097656 50.71875 50.203125 52.996094 50.203125 C 54.886719 50.203125 56.054688 49.539062 58 47.4375 Z M 48.871094 42.847656 C 48.871094 44.507812 48.59375 45.113281 47.425781 45.777344 C 46.035156 46.554688 44.089844 46.996094 42.921875 46.996094 C 40.976562 46.996094 39.417969 45.113281 39.417969 42.734375 L 39.417969 42.515625 C 39.472656 39.195312 42.367188 38.117188 48.871094 35.851562 Z M 48.871094 42.847656 "/>
<path style=" stroke:none;fill-rule:nonzero;fill:rgb(50.588238%,23.921569%,61.176473%);fill-opacity:1;" d="M 86.3125 64.675781 C 85.398438 64.59375 84.246094 64.914062 82.855469 65.628906 C 81.464844 66.34375 80.054688 67.414062 78.625 68.847656 C 77.191406 70.238281 75.863281 71.925781 74.628906 73.914062 C 73.4375 75.898438 72.5625 78.105469 72.007812 80.527344 C 71.570312 82.316406 71.410156 83.867188 71.53125 85.179688 C 71.648438 86.449219 71.929688 87.503906 72.363281 88.335938 C 72.800781 89.132812 73.339844 89.707031 73.972656 90.066406 C 74.609375 90.464844 75.207031 90.660156 75.761719 90.660156 C 76.953125 90.582031 78.148438 90.324219 79.339844 89.886719 C 80.371094 89.488281 81.464844 88.875 82.617188 88.039062 C 83.769531 87.164062 84.824219 85.933594 85.777344 84.34375 C 85.738281 85.417969 85.796875 86.3125 85.957031 87.027344 C 86.152344 87.742188 86.351562 88.316406 86.550781 88.753906 C 86.789062 89.269531 87.085938 89.667969 87.445312 89.945312 C 87.804688 90.183594 88.21875 90.34375 88.695312 90.421875 C 89.175781 90.542969 89.671875 90.582031 90.1875 90.542969 C 90.742188 90.503906 91.28125 90.402344 91.796875 90.246094 C 92.3125 90.085938 92.769531 89.886719 93.167969 89.648438 C 93.761719 89.25 94.5 88.574219 95.371094 87.621094 C 96.285156 86.628906 97.199219 85.554688 98.113281 84.402344 C 99.070312 83.210938 99.984375 82.039062 100.855469 80.886719 C 101.730469 79.695312 102.445312 78.703125 103.003906 77.90625 C 103.480469 77.269531 103.757812 76.714844 103.835938 76.238281 C 103.957031 75.761719 103.9375 75.402344 103.777344 75.164062 C 103.617188 74.925781 103.378906 74.847656 103.0625 74.925781 C 102.746094 74.964844 102.425781 75.164062 102.109375 75.523438 C 101.871094 75.839844 101.472656 76.335938 100.917969 77.011719 C 100.398438 77.6875 99.804688 78.460938 99.128906 79.335938 C 98.453125 80.210938 97.71875 81.125 96.921875 82.078125 C 96.167969 82.992188 95.433594 83.847656 94.71875 84.640625 C 94.003906 85.398438 93.328125 86.03125 92.691406 86.550781 C 92.054688 87.027344 91.539062 87.265625 91.140625 87.265625 C 90.664062 87.265625 90.285156 87.164062 90.007812 86.964844 C 89.769531 86.726562 89.589844 86.429688 89.472656 86.074219 C 89.351562 85.714844 89.273438 85.335938 89.234375 84.941406 C 89.234375 84.503906 89.253906 84.105469 89.292969 83.746094 C 89.414062 83.152344 89.511719 82.65625 89.589844 82.257812 C 89.671875 81.859375 89.730469 81.523438 89.769531 81.246094 C 89.847656 80.925781 89.910156 80.628906 89.949219 80.351562 C 90.027344 80.03125 90.109375 79.695312 90.1875 79.335938 C 90.585938 77.507812 90.902344 76.019531 91.140625 74.867188 C 91.378906 73.714844 91.558594 72.800781 91.675781 72.125 C 91.796875 71.449219 91.855469 70.992188 91.855469 70.753906 C 91.855469 70.476562 91.835938 70.296875 91.796875 70.21875 C 91.71875 70.175781 91.558594 70.15625 91.320312 70.15625 C 91.121094 70.15625 90.824219 70.175781 90.425781 70.21875 C 90.066406 70.257812 89.609375 70.335938 89.054688 70.457031 C 89.890625 69.183594 90.207031 68.171875 90.007812 67.414062 C 89.847656 66.621094 89.492188 66.023438 88.9375 65.628906 C 88.261719 65.191406 87.386719 64.871094 86.3125 64.675781 Z M 84.910156 68.402344 C 85.0625 68.410156 85.191406 68.460938 85.300781 68.546875 C 85.417969 68.707031 85.5 68.925781 85.539062 69.203125 C 85.578125 69.441406 85.558594 69.78125 85.476562 70.21875 C 85.4375 70.613281 85.261719 71.132812 84.941406 71.765625 C 85.261719 71.6875 85.578125 71.628906 85.894531 71.589844 C 86.214844 71.546875 86.472656 71.488281 86.671875 71.410156 C 86.910156 71.328125 87.128906 71.269531 87.328125 71.230469 C 87.484375 71.191406 87.503906 71.507812 87.386719 72.183594 C 87.304688 72.820312 87.167969 73.632812 86.96875 74.628906 C 86.769531 75.621094 86.53125 76.65625 86.253906 77.726562 C 85.976562 78.800781 85.738281 79.734375 85.539062 80.527344 C 85.5 80.726562 85.320312 81.046875 85 81.484375 C 84.722656 81.917969 84.347656 82.398438 83.867188 82.914062 C 83.433594 83.429688 82.914062 83.925781 82.320312 84.402344 C 81.761719 84.878906 81.1875 85.277344 80.589844 85.59375 C 80.035156 85.875 79.476562 86.03125 78.921875 86.074219 C 78.367188 86.074219 77.867188 85.855469 77.433594 85.417969 C 77.191406 85.179688 77.035156 84.679688 76.953125 83.925781 C 76.875 83.132812 76.894531 82.21875 77.015625 81.183594 C 77.171875 80.152344 77.433594 79.058594 77.789062 77.90625 C 78.148438 76.714844 78.625 75.601562 79.21875 74.570312 C 80.648438 72.066406 81.902344 70.355469 82.976562 69.441406 C 83.808594 68.726562 84.453125 68.378906 84.910156 68.402344 Z M 84.910156 68.402344 "/>
<path style=" stroke:none;fill-rule:evenodd;fill:rgb(50.588238%,23.921569%,61.176473%);fill-opacity:1;" d="M 38.796875 66.074219 C 36.09375 66.039062 36.09375 70.113281 38.796875 70.074219 L 48.679688 70.074219 C 48.6875 70.078125 48.964844 70.109375 49.265625 70.273438 C 49.570312 70.441406 49.75 70.460938 49.800781 71.210938 L 49.800781 71.191406 L 50.046875 76.386719 C 49.585938 76.210938 49.277344 76.132812 49.277344 76.132812 L 49.042969 76.074219 L 39.796875 76.074219 C 35.464844 76.074219 33.902344 80.441406 33.902344 80.441406 L 33.796875 80.75 L 33.796875 83.074219 C 33.796875 86.109375 35.226562 88.203125 36.738281 89.144531 C 38.246094 90.089844 39.796875 90.074219 39.796875 90.074219 L 47.390625 90.074219 L 50.78125 87.871094 L 50.800781 88.191406 C 50.890625 90.929688 55.023438 90.6875 54.792969 87.957031 L 53.792969 70.949219 L 53.792969 70.9375 C 53.652344 68.875 52.332031 67.394531 51.1875 66.765625 C 50.039062 66.136719 48.929688 66.078125 48.929688 66.078125 L 48.863281 66.074219 Z M 39.796875 80.074219 L 48.441406 80.074219 C 48.546875 80.105469 48.964844 80.21875 49.480469 80.558594 C 50.035156 80.929688 50.355469 81.246094 50.375 81.914062 L 50.511719 83.277344 L 46.207031 86.074219 L 39.796875 86.074219 C 39.796875 86.074219 39.347656 86.0625 38.859375 85.753906 C 38.367188 85.449219 37.796875 85.042969 37.796875 83.074219 L 37.796875 81.511719 C 37.898438 81.207031 38.332031 80.074219 39.796875 80.074219 Z M 39.796875 80.074219 "/>
<path style=" stroke:none;fill-rule:nonzero;fill:rgb(23.921569%,21.960784%,27.450982%);fill-opacity:1;" d="M 12 12 L 20 12 L 20 106 L 12 106 Z M 12 12 "/>
<path style=" stroke:none;fill-rule:nonzero;fill:rgb(100%,100%,100%);fill-opacity:1;" d="M 84.984375 26.488281 C 81.085938 26.488281 77.148438 27.53125 74.472656 29.433594 L 77.011719 34.371094 C 78.777344 32.96875 81.449219 32.105469 84.03125 32.105469 C 87.835938 32.105469 89.964844 34.132812 89.964844 37.167969 L 82.933594 37.136719 C 75.503906 37.101562 72.46875 40.878906 72.46875 45.183594 C 72.46875 49.394531 75.570312 52.449219 81.277344 52.449219 C 84.855469 52.449219 88.652344 51.386719 89.964844 49.167969 L 89.964844 52.171875 L 97.464844 52.167969 L 97.464844 37.542969 C 97.464844 30.160156 92.410156 26.488281 84.984375 26.488281 Z M 83.339844 47.808594 C 80.847656 47.808594 79.355469 46.632812 79.355469 44.867188 C 79.355469 43.234375 80.394531 41.613281 83.703125 41.636719 L 89.964844 41.667969 L 89.964844 43.941406 C 89.964844 46.304688 85.695312 47.808594 83.339844 47.808594 Z M 83.339844 47.808594 "/>
<path style=" stroke:none;fill-rule:nonzero;fill:rgb(100%,100%,100%);fill-opacity:1;" d="M 58 48 C 57.054688 48.773438 56.386719 49.050781 55.554688 49.050781 C 54.277344 49.050781 53.886719 48.277344 53.886719 45.84375 L 53.886719 35.054688 C 53.886719 32.179688 53.609375 30.574219 52.773438 29.246094 C 51.550781 27.253906 48.203125 26.203125 44.921875 26.203125 C 39.695312 26.203125 35.582031 28.914062 35.582031 32.398438 C 35.582031 33.671875 36.640625 34.777344 37.972656 34.777344 C 39.308594 34.777344 40.476562 33.671875 40.476562 32.457031 C 40.476562 32.234375 40.417969 31.957031 40.363281 31.570312 C 40.253906 31.074219 40.195312 30.628906 40.195312 30.242188 C 40.195312 28.75 41.976562 27.53125 44.199219 27.53125 C 46.921875 27.53125 48.871094 29.136719 48.871094 32.125 L 48.871094 36.523438 C 41.214844 38.769531 38.917969 39.371094 36.527344 41.472656 C 35.304688 42.578125 34.527344 44.460938 34.527344 46.285156 C 34.527344 49.769531 36.972656 52.203125 40.363281 52.203125 C 42.808594 52.203125 45.535156 51.042969 48.925781 48.164062 C 49.207031 51.097656 50.71875 52.203125 52.996094 52.203125 C 54.886719 52.203125 56.054688 51.539062 58 49.4375 Z M 48.871094 44.847656 C 48.871094 46.507812 48.59375 47.113281 47.425781 47.777344 C 46.035156 48.554688 44.089844 48.996094 42.921875 48.996094 C 40.976562 48.996094 39.417969 47.113281 39.417969 44.734375 L 39.417969 44.515625 C 39.472656 41.195312 42.367188 40.117188 48.871094 37.851562 Z M 48.871094 44.847656 "/>
<path style=" stroke:none;fill-rule:nonzero;fill:rgb(100%,100%,100%);fill-opacity:1;" d="M 86.3125 66.675781 C 85.398438 66.59375 84.246094 66.914062 82.855469 67.628906 C 81.464844 68.34375 80.054688 69.414062 78.625 70.847656 C 77.191406 72.238281 75.863281 73.925781 74.628906 75.914062 C 73.4375 77.898438 72.5625 80.105469 72.007812 82.527344 C 71.570312 84.316406 71.410156 85.867188 71.53125 87.179688 C 71.648438 88.449219 71.929688 89.503906 72.363281 90.335938 C 72.800781 91.132812 73.339844 91.707031 73.972656 92.066406 C 74.609375 92.464844 75.207031 92.660156 75.761719 92.660156 C 76.953125 92.582031 78.148438 92.324219 79.339844 91.886719 C 80.371094 91.488281 81.464844 90.875 82.617188 90.039062 C 83.769531 89.164062 84.824219 87.933594 85.777344 86.34375 C 85.738281 87.417969 85.796875 88.3125 85.957031 89.027344 C 86.152344 89.742188 86.351562 90.316406 86.550781 90.753906 C 86.789062 91.269531 87.085938 91.667969 87.445312 91.945312 C 87.804688 92.183594 88.21875 92.34375 88.695312 92.421875 C 89.175781 92.542969 89.671875 92.582031 90.1875 92.542969 C 90.742188 92.503906 91.28125 92.402344 91.796875 92.246094 C 92.3125 92.085938 92.769531 91.886719 93.167969 91.648438 C 93.761719 91.25 94.5 90.574219 95.371094 89.621094 C 96.285156 88.628906 97.199219 87.554688 98.113281 86.402344 C 99.070312 85.210938 99.984375 84.039062 100.855469 82.886719 C 101.730469 81.695312 102.445312 80.703125 103.003906 79.90625 C 103.480469 79.269531 103.757812 78.714844 103.835938 78.238281 C 103.957031 77.761719 103.9375 77.402344 103.777344 77.164062 C 103.617188 76.925781 103.378906 76.847656 103.0625 76.925781 C 102.746094 76.964844 102.425781 77.164062 102.109375 77.523438 C 101.871094 77.839844 101.472656 78.335938 100.917969 79.011719 C 100.398438 79.6875 99.804688 80.460938 99.128906 81.335938 C 98.453125 82.210938 97.71875 83.125 96.921875 84.078125 C 96.167969 84.992188 95.433594 85.847656 94.71875 86.640625 C 94.003906 87.398438 93.328125 88.03125 92.691406 88.550781 C 92.054688 89.027344 91.539062 89.265625 91.140625 89.265625 C 90.664062 89.265625 90.285156 89.164062 90.007812 88.964844 C 89.769531 88.726562 89.589844 88.429688 89.472656 88.074219 C 89.351562 87.714844 89.273438 87.335938 89.234375 86.941406 C 89.234375 86.503906 89.253906 86.105469 89.292969 85.746094 C 89.414062 85.152344 89.511719 84.65625 89.589844 84.257812 C 89.671875 83.859375 89.730469 83.523438 89.769531 83.246094 C 89.847656 82.925781 89.910156 82.628906 89.949219 82.351562 C 90.027344 82.03125 90.109375 81.695312 90.1875 81.335938 C 90.585938 79.507812 90.902344 78.019531 91.140625 76.867188 C 91.378906 75.714844 91.558594 74.800781 91.675781 74.125 C 91.796875 73.449219 91.855469 72.992188 91.855469 72.753906 C 91.855469 72.476562 91.835938 72.296875 91.796875 72.21875 C 91.71875 72.175781 91.558594 72.15625 91.320312 72.15625 C 91.121094 72.15625 90.824219 72.175781 90.425781 72.21875 C 90.066406 72.257812 89.609375 72.335938 89.054688 72.457031 C 89.890625 71.183594 90.207031 70.171875 90.007812 69.414062 C 89.847656 68.621094 89.492188 68.023438 88.9375 67.628906 C 88.261719 67.191406 87.386719 66.871094 86.3125 66.675781 Z M 84.910156 70.402344 C 85.0625 70.410156 85.191406 70.460938 85.300781 70.546875 C 85.417969 70.707031 85.5 70.925781 85.539062 71.203125 C 85.578125 71.441406 85.558594 71.78125 85.476562 72.21875 C 85.4375 72.613281 85.261719 73.132812 84.941406 73.765625 C 85.261719 73.6875 85.578125 73.628906 85.894531 73.589844 C 86.214844 73.546875 86.472656 73.488281 86.671875 73.410156 C 86.910156 73.328125 87.128906 73.269531 87.328125 73.230469 C 87.484375 73.191406 87.503906 73.507812 87.386719 74.183594 C 87.304688 74.820312 87.167969 75.632812 86.96875 76.628906 C 86.769531 77.621094 86.53125 78.65625 86.253906 79.726562 C 85.976562 80.800781 85.738281 81.734375 85.539062 82.527344 C 85.5 82.726562 85.320312 83.046875 85 83.484375 C 84.722656 83.917969 84.347656 84.398438 83.867188 84.914062 C 83.433594 85.429688 82.914062 85.925781 82.320312 86.402344 C 81.761719 86.878906 81.1875 87.277344 80.589844 87.59375 C 80.035156 87.875 79.476562 88.03125 78.921875 88.074219 C 78.367188 88.074219 77.867188 87.855469 77.433594 87.417969 C 77.191406 87.179688 77.035156 86.679688 76.953125 85.925781 C 76.875 85.132812 76.894531 84.21875 77.015625 83.183594 C 77.171875 82.152344 77.433594 81.058594 77.789062 79.90625 C 78.148438 78.714844 78.625 77.601562 79.21875 76.570312 C 80.648438 74.066406 81.902344 72.355469 82.976562 71.441406 C 83.808594 70.726562 84.453125 70.378906 84.910156 70.402344 Z M 84.910156 70.402344 "/>
<path style=" stroke:none;fill-rule:evenodd;fill:rgb(100%,100%,100%);fill-opacity:1;" d="M 38.796875 68.074219 C 36.09375 68.039062 36.09375 72.113281 38.796875 72.074219 L 48.679688 72.074219 C 48.6875 72.078125 48.964844 72.109375 49.265625 72.273438 C 49.570312 72.441406 49.75 72.460938 49.800781 73.210938 L 49.800781 73.191406 L 50.046875 78.386719 C 49.585938 78.210938 49.277344 78.132812 49.277344 78.132812 L 49.042969 78.074219 L 39.796875 78.074219 C 35.464844 78.074219 33.902344 82.441406 33.902344 82.441406 L 33.796875 82.75 L 33.796875 85.074219 C 33.796875 88.109375 35.226562 90.203125 36.738281 91.144531 C 38.246094 92.089844 39.796875 92.074219 39.796875 92.074219 L 47.390625 92.074219 L 50.78125 89.871094 L 50.800781 90.191406 C 50.890625 92.929688 55.023438 92.6875 54.792969 89.957031 L 53.792969 72.949219 L 53.792969 72.9375 C 53.652344 70.875 52.332031 69.394531 51.1875 68.765625 C 50.039062 68.136719 48.929688 68.078125 48.929688 68.078125 L 48.863281 68.074219 Z M 39.796875 82.074219 L 48.441406 82.074219 C 48.546875 82.105469 48.964844 82.21875 49.480469 82.558594 C 50.035156 82.929688 50.355469 83.246094 50.375 83.914062 L 50.511719 85.277344 L 46.207031 88.074219 L 39.796875 88.074219 C 39.796875 88.074219 39.347656 88.0625 38.859375 87.753906 C 38.367188 87.449219 37.796875 87.042969 37.796875 85.074219 L 37.796875 83.511719 C 37.898438 83.207031 38.332031 82.074219 39.796875 82.074219 Z M 39.796875 82.074219 "/>
<path style=" stroke:none;fill-rule:nonzero;fill:rgb(14.117648%,12.156863%,19.215687%);fill-opacity:1;" d="M 12 106 L 12 116 L 20 116 L 20 114 L 14 114 L 14 108 L 20 108 L 20 106 Z M 12 106 "/>
<use xlink:href="#surface88644" mask="url(#mask2)"/>
</g>
<clipPath id="clip2">
  <rect x="0" y="0" width="128" height="128"/>
</clipPath>
<g id="surface88656" clip-path="url(#clip2)" filter="url(#alpha)">
<use xlink:href="#surface88653"/>
</g>
<mask id="mask1">
<use xlink:href="#surface88656"/>
</mask>
<mask id="mask3">
  <g filter="url(#alpha)">
<rect x="0" y="0" width="128" height="128" style="fill:rgb(0%,0%,0%);fill-opacity:0.8;stroke:none;"/>
  </g>
</mask>
<linearGradient id="linear4" gradientUnits="userSpaceOnUse" x1="300" y1="235" x2="428" y2="235" gradientTransform="matrix(0.000000000000000023,0.37,-0.98462,0.00000000000000006,295.38501,-30.360001)">
<stop offset="0" style="stop-color:rgb(97.647059%,94.117647%,41.960785%);stop-opacity:1;"/>
<stop offset="1" style="stop-color:rgb(96.078432%,76.078433%,6.666667%);stop-opacity:1;"/>
</linearGradient>
<clipPath id="clip6">
  <rect x="0" y="0" width="128" height="128"/>
</clipPath>
<g id="surface88650" clip-path="url(#clip6)">
<path style=" stroke:none;fill-rule:nonzero;fill:url(#linear4);" d="M 128 80.640625 L 128 128 L 0 128 L 0 80.640625 Z M 128 80.640625 "/>
<path style=" stroke:none;fill-rule:nonzero;fill:rgb(0%,0%,0%);fill-opacity:1;" d="M 13.308594 80.640625 L 60.664062 128 L 81.878906 128 L 34.519531 80.640625 Z M 55.730469 80.640625 L 103.09375 128 L 124.308594 128 L 76.945312 80.640625 Z M 98.160156 80.640625 L 128 110.480469 L 128 89.269531 L 119.371094 80.640625 Z M 0 88.546875 L 0 109.761719 L 18.238281 128 L 39.453125 128 Z M 0 88.546875 "/>
</g>
<clipPath id="clip5">
  <rect x="0" y="0" width="128" height="128"/>
</clipPath>
<g id="surface88655" clip-path="url(#clip5)">
<use xlink:href="#surface88650" mask="url(#mask3)"/>
</g>
</defs>
<g id="surface88638">
<path style=" stroke:none;fill-rule:nonzero;fill:rgb(50.588238%,23.921569%,61.176473%);fill-opacity:1;" d="M 12 32 L 12 116 L 108 116 C 112.433594 116 116 112.433594 116 108 L 116 40 C 116 35.566406 112.433594 32 108 32 Z M 12 32 "/>
<path style=" stroke:none;fill-rule:nonzero;fill:url(#linear0);" d="M 14 44 L 14 114 L 108 114 C 112.433594 114 116 110.433594 116 106 L 116 52 C 116 47.566406 112.433594 44 108 44 Z M 14 44 "/>
<path style=" stroke:none;fill-rule:nonzero;fill:rgb(50.588238%,23.921569%,61.176473%);fill-opacity:1;" d="M 12 14 L 12 108 L 108 108 C 112.433594 108 116 104.433594 116 100 L 116 22 C 116 17.566406 112.433594 14 108 14 Z M 12 14 "/>
<path style=" stroke:none;fill-rule:nonzero;fill:url(#linear1);" d="M 12 12 L 12 106 L 108 106 C 112.433594 106 116 102.433594 116 98 L 116 20 C 116 15.566406 112.433594 12 108 12 Z M 12 12 "/>
<path style=" stroke:none;fill-rule:nonzero;fill:rgb(50.588238%,23.921569%,61.176473%);fill-opacity:1;" d="M 84.984375 24.488281 C 81.085938 24.488281 77.148438 25.53125 74.472656 27.433594 L 77.011719 32.371094 C 78.777344 30.96875 81.449219 30.105469 84.03125 30.105469 C 87.835938 30.105469 89.964844 32.132812 89.964844 35.167969 L 82.933594 35.136719 C 75.503906 35.101562 72.46875 38.878906 72.46875 43.183594 C 72.46875 47.394531 75.570312 50.449219 81.277344 50.449219 C 84.855469 50.449219 88.652344 49.386719 89.964844 47.167969 L 89.964844 50.171875 L 97.464844 50.167969 L 97.464844 35.542969 C 97.464844 28.160156 92.410156 24.488281 84.984375 24.488281 Z M 83.339844 45.808594 C 80.847656 45.808594 79.355469 44.632812 79.355469 42.867188 C 79.355469 41.234375 80.394531 39.613281 83.703125 39.636719 L 89.964844 39.667969 L 89.964844 41.941406 C 89.964844 44.304688 85.695312 45.808594 83.339844 45.808594 Z M 83.339844 45.808594 "/>
<path style=" stroke:none;fill-rule:nonzero;fill:rgb(50.588238%,23.921569%,61.176473%);fill-opacity:1;" d="M 58 46 C 57.054688 46.773438 56.386719 47.050781 55.554688 47.050781 C 54.277344 47.050781 53.886719 46.277344 53.886719 43.84375 L 53.886719 33.054688 C 53.886719 30.179688 53.609375 28.574219 52.773438 27.246094 C 51.550781 25.253906 48.203125 24.203125 44.921875 24.203125 C 39.695312 24.203125 35.582031 26.914062 35.582031 30.398438 C 35.582031 31.671875 36.640625 32.777344 37.972656 32.777344 C 39.308594 32.777344 40.476562 31.671875 40.476562 30.457031 C 40.476562 30.234375 40.417969 29.957031 40.363281 29.570312 C 40.253906 29.074219 40.195312 28.628906 40.195312 28.242188 C 40.195312 26.75 41.976562 25.53125 44.199219 25.53125 C 46.921875 25.53125 48.871094 27.136719 48.871094 30.125 L 48.871094 34.523438 C 41.214844 36.769531 38.917969 37.371094 36.527344 39.472656 C 35.304688 40.578125 34.527344 42.460938 34.527344 44.285156 C 34.527344 47.769531 36.972656 50.203125 40.363281 50.203125 C 42.808594 50.203125 45.535156 49.042969 48.925781 46.164062 C 49.207031 49.097656 50.71875 50.203125 52.996094 50.203125 C 54.886719 50.203125 56.054688 49.539062 58 47.4375 Z M 48.871094 42.847656 C 48.871094 44.507812 48.59375 45.113281 47.425781 45.777344 C 46.035156 46.554688 44.089844 46.996094 42.921875 46.996094 C 40.976562 46.996094 39.417969 45.113281 39.417969 42.734375 L 39.417969 42.515625 C 39.472656 39.195312 42.367188 38.117188 48.871094 35.851562 Z M 48.871094 42.847656 "/>
<path style=" stroke:none;fill-rule:nonzero;fill:rgb(50.588238%,23.921569%,61.176473%);fill-opacity:1;" d="M 86.3125 64.675781 C 85.398438 64.59375 84.246094 64.914062 82.855469 65.628906 C 81.464844 66.34375 80.054688 67.414062 78.625 68.847656 C 77.191406 70.238281 75.863281 71.925781 74.628906 73.914062 C 73.4375 75.898438 72.5625 78.105469 72.007812 80.527344 C 71.570312 82.316406 71.410156 83.867188 71.53125 85.179688 C 71.648438 86.449219 71.929688 87.503906 72.363281 88.335938 C 72.800781 89.132812 73.339844 89.707031 73.972656 90.066406 C 74.609375 90.464844 75.207031 90.660156 75.761719 90.660156 C 76.953125 90.582031 78.148438 90.324219 79.339844 89.886719 C 80.371094 89.488281 81.464844 88.875 82.617188 88.039062 C 83.769531 87.164062 84.824219 85.933594 85.777344 84.34375 C 85.738281 85.417969 85.796875 86.3125 85.957031 87.027344 C 86.152344 87.742188 86.351562 88.316406 86.550781 88.753906 C 86.789062 89.269531 87.085938 89.667969 87.445312 89.945312 C 87.804688 90.183594 88.21875 90.34375 88.695312 90.421875 C 89.175781 90.542969 89.671875 90.582031 90.1875 90.542969 C 90.742188 90.503906 91.28125 90.402344 91.796875 90.246094 C 92.3125 90.085938 92.769531 89.886719 93.167969 89.648438 C 93.761719 89.25 94.5 88.574219 95.371094 87.621094 C 96.285156 86.628906 97.199219 85.554688 98.113281 84.402344 C 99.070312 83.210938 99.984375 82.039062 100.855469 80.886719 C 101.730469 79.695312 102.445312 78.703125 103.003906 77.90625 C 103.480469 77.269531 103.757812 76.714844 103.835938 76.238281 C 103.957031 75.761719 103.9375 75.402344 103.777344 75.164062 C 103.617188 74.925781 103.378906 74.847656 103.0625 74.925781 C 102.746094 74.964844 102.425781 75.164062 102.109375 75.523438 C 101.871094 75.839844 101.472656 76.335938 100.917969 77.011719 C 100.398438 77.6875 99.804688 78.460938 99.128906 79.335938 C 98.453125 80.210938 97.71875 81.125 96.921875 82.078125 C 96.167969 82.992188 95.433594 83.847656 94.71875 84.640625 C 94.003906 85.398438 93.328125 86.03125 92.691406 86.550781 C 92.054688 87.027344 91.539062 87.265625 91.140625 87.265625 C 90.664062 87.265625 90.285156 87.164062 90.007812 86.964844 C 89.769531 86.726562 89.589844 86.429688 89.472656 86.074219 C 89.351562 85.714844 89.273438 85.335938 89.234375 84.941406 C 89.234375 84.503906 89.253906 84.105469 89.292969 83.746094 C 89.414062 83.152344 89.511719 82.65625 89.589844 82.257812 C 89.671875 81.859375 89.730469 81.523438 89.769531 81.246094 C 89.847656 80.925781 89.910156 80.628906 89.949219 80.351562 C 90.027344 80.03125 90.109375 79.695312 90.1875 79.335938 C 90.585938 77.507812 90.902344 76.019531 91.140625 74.867188 C 91.378906 73.714844 91.558594 72.800781 91.675781 72.125 C 91.796875 71.449219 91.855469 70.992188 91.855469 70.753906 C 91.855469 70.476562 91.835938 70.296875 91.796875 70.21875 C 91.71875 70.175781 91.558594 70.15625 91.320312 70.15625 C 91.121094 70.15625 90.824219 70.175781 90.425781 70.21875 C 90.066406 70.257812 89.609375 70.335938 89.054688 70.457031 C 89.890625 69.183594 90.207031 68.171875 90.007812 67.414062 C 89.847656 66.621094 89.492188 66.023438 88.9375 65.628906 C 88.261719 65.191406 87.386719 64.871094 86.3125 64.675781 Z M 84.910156 68.402344 C 85.0625 68.410156 85.191406 68.460938 85.300781 68.546875 C 85.417969 68.707031 85.5 68.925781 85.539062 69.203125 C 85.578125 69.441406 85.558594 69.78125 85.476562 70.21875 C 85.4375 70.613281 85.261719 71.132812 84.941406 71.765625 C 85.261719 71.6875 85.578125 71.628906 85.894531 71.589844 C 86.214844 71.546875 86.472656 71.488281 86.671875 71.410156 C 86.910156 71.328125 87.128906 71.269531 87.328125 71.230469 C 87.484375 71.191406 87.503906 71.507812 87.386719 72.183594 C 87.304688 72.820312 87.167969 73.632812 86.96875 74.628906 C 86.769531 75.621094 86.53125 76.65625 86.253906 77.726562 C 85.976562 78.800781 85.738281 79.734375 85.539062 80.527344 C 85.5 80.726562 85.320312 81.046875 85 81.484375 C 84.722656 81.917969 84.347656 82.398438 83.867188 82.914062 C 83.433594 83.429688 82.914062 83.925781 82.320312 84.402344 C 81.761719 84.878906 81.1875 85.277344 80.589844 85.59375 C 80.035156 85.875 79.476562 86.03125 78.921875 86.074219 C 78.367188 86.074219 77.867188 85.855469 77.433594 85.417969 C 77.191406 85.179688 77.035156 84.679688 76.953125 83.925781 C 76.875 83.132812 76.894531 82.21875 77.015625 81.183594 C 77.171875 80.152344 77.433594 79.058594 77.789062 77.90625 C 78.148438 76.714844 78.625 75.601562 79.21875 74.570312 C 80.648438 72.066406 81.902344 70.355469 82.976562 69.441406 C 83.808594 68.726562 84.453125 68.378906 84.910156 68.402344 Z M 84.910156 68.402344 "/>
<path style=" stroke:none;fill-rule:evenodd;fill:rgb(50.588238%,23.921569%,61.176473%);fill-opacity:1;" d="M 38.796875 66.074219 C 36.09375 66.039062 36.09375 70.113281 38.796875 70.074219 L 48.679688 70.074219 C 48.6875 70.078125 48.964844 70.109375 49.265625 70.273438 C 49.570312 70.441406 49.75 70.460938 49.800781 71.210938 L 49.800781 71.191406 L 50.046875 76.386719 C 49.585938 76.210938 49.277344 76.132812 49.277344 76.132812 L 49.042969 76.074219 L 39.796875 76.074219 C 35.464844 76.074219 33.902344 80.441406 33.902344 80.441406 L 33.796875 80.75 L 33.796875 83.074219 C 33.796875 86.109375 35.226562 88.203125 36.738281 89.144531 C 38.246094 90.089844 39.796875 90.074219 39.796875 90.074219 L 47.390625 90.074219 L 50.78125 87.871094 L 50.800781 88.191406 C 50.890625 90.929688 55.023438 90.6875 54.792969 87.957031 L 53.792969 70.949219 L 53.792969 70.9375 C 53.652344 68.875 52.332031 67.394531 51.1875 66.765625 C 50.039062 66.136719 48.929688 66.078125 48.929688 66.078125 L 48.863281 66.074219 Z M 39.796875 80.074219 L 48.441406 80.074219 C 48.546875 80.105469 48.964844 80.21875 49.480469 80.558594 C 50.035156 80.929688 50.355469 81.246094 50.375 81.914062 L 50.511719 83.277344 L 46.207031 86.074219 L 39.796875 86.074219 C 39.796875 86.074219 39.347656 86.0625 38.859375 85.753906 C 38.367188 85.449219 37.796875 85.042969 37.796875 83.074219 L 37.796875 81.511719 C 37.898438 81.207031 38.332031 80.074219 39.796875 80.074219 Z M 39.796875 80.074219 "/>
<path style=" stroke:none;fill-rule:nonzero;fill:rgb(23.921569%,21.960784%,27.450982%);fill-opacity:1;" d="M 12 12 L 20 12 L 20 106 L 12 106 Z M 12 12 "/>
<path style=" stroke:none;fill-rule:nonzero;fill:rgb(100%,100%,100%);fill-opacity:1;" d="M 84.984375 26.488281 C 81.085938 26.488281 77.148438 27.53125 74.472656 29.433594 L 77.011719 34.371094 C 78.777344 32.96875 81.449219 32.105469 84.03125 32.105469 C 87.835938 32.105469 89.964844 34.132812 89.964844 37.167969 L 82.933594 37.136719 C 75.503906 37.101562 72.46875 40.878906 72.46875 45.183594 C 72.46875 49.394531 75.570312 52.449219 81.277344 52.449219 C 84.855469 52.449219 88.652344 51.386719 89.964844 49.167969 L 89.964844 52.171875 L 97.464844 52.167969 L 97.464844 37.542969 C 97.464844 30.160156 92.410156 26.488281 84.984375 26.488281 Z M 83.339844 47.808594 C 80.847656 47.808594 79.355469 46.632812 79.355469 44.867188 C 79.355469 43.234375 80.394531 41.613281 83.703125 41.636719 L 89.964844 41.667969 L 89.964844 43.941406 C 89.964844 46.304688 85.695312 47.808594 83.339844 47.808594 Z M 83.339844 47.808594 "/>
<path style=" stroke:none;fill-rule:nonzero;fill:rgb(100%,100%,100%);fill-opacity:1;" d="M 58 48 C 57.054688 48.773438 56.386719 49.050781 55.554688 49.050781 C 54.277344 49.050781 53.886719 48.277344 53.886719 45.84375 L 53.886719 35.054688 C 53.886719 32.179688 53.609375 30.574219 52.773438 29.246094 C 51.550781 27.253906 48.203125 26.203125 44.921875 26.203125 C 39.695312 26.203125 35.582031 28.914062 35.582031 32.398438 C 35.582031 33.671875 36.640625 34.777344 37.972656 34.777344 C 39.308594 34.777344 40.476562 33.671875 40.476562 32.457031 C 40.476562 32.234375 40.417969 31.957031 40.363281 31.570312 C 40.253906 31.074219 40.195312 30.628906 40.195312 30.242188 C 40.195312 28.75 41.976562 27.53125 44.199219 27.53125 C 46.921875 27.53125 48.871094 29.136719 48.871094 32.125 L 48.871094 36.523438 C 41.214844 38.769531 38.917969 39.371094 36.527344 41.472656 C 35.304688 42.578125 34.527344 44.460938 34.527344 46.285156 C 34.527344 49.769531 36.972656 52.203125 40.363281 52.203125 C 42.808594 52.203125 45.535156 51.042969 48.925781 48.164062 C 49.207031 51.097656 50.71875 52.203125 52.996094 52.203125 C 54.886719 52.203125 56.054688 51.539062 58 49.4375 Z M 48.871094 44.847656 C 48.871094 46.507812 48.59375 47.113281 47.425781 47.777344 C 46.035156 48.554688 44.089844 48.996094 42.921875 48.996094 C 40.976562 48.996094 39.417969 47.113281 39.417969 44.734375 L 39.417969 44.515625 C 39.472656 41.195312 42.367188 40.117188 48.871094 37.851562 Z M 48.871094 44.847656 "/>
<path style=" stroke:none;fill-rule:nonzero;fill:rgb(100%,100%,100%);fill-opacity:1;" d="M 86.3125 66.675781 C 85.398438 66.59375 84.246094 66.914062 82.855469 67.628906 C 81.464844 68.34375 80.054688 69.414062 78.625 70.847656 C 77.191406 72.238281 75.863281 73.925781 74.628906 75.914062 C 73.4375 77.898438 72.5625 80.105469 72.007812 82.527344 C 71.570312 84.316406 71.410156 85.867188 71.53125 87.179688 C 71.648438 88.449219 71.929688 89.503906 72.363281 90.335938 C 72.800781 91.132812 73.339844 91.707031 73.972656 92.066406 C 74.609375 92.464844 75.207031 92.660156 75.761719 92.660156 C 76.953125 92.582031 78.148438 92.324219 79.339844 91.886719 C 80.371094 91.488281 81.464844 90.875 82.617188 90.039062 C 83.769531 89.164062 84.824219 87.933594 85.777344 86.34375 C 85.738281 87.417969 85.796875 88.3125 85.957031 89.027344 C 86.152344 89.742188 86.351562 90.316406 86.550781 90.753906 C 86.789062 91.269531 87.085938 91.667969 87.445312 91.945312 C 87.804688 92.183594 88.21875 92.34375 88.695312 92.421875 C 89.175781 92.542969 89.671875 92.582031 90.1875 92.542969 C 90.742188 92.503906 91.28125 92.402344 91.796875 92.246094 C 92.3125 92.085938 92.769531 91.886719 93.167969 91.648438 C 93.761719 91.25 94.5 90.574219 95.371094 89.621094 C 96.285156 88.628906 97.199219 87.554688 98.113281 86.402344 C 99.070312 85.210938 99.984375 84.039062 100.855469 82.886719 C 101.730469 81.695312 102.445312 80.703125 103.003906 79.90625 C 103.480469 79.269531 103.757812 78.714844 103.835938 78.238281 C 103.957031 77.761719 103.9375 77.402344 103.777344 77.164062 C 103.617188 76.925781 103.378906 76.847656 103.0625 76.925781 C 102.746094 76.964844 102.425781 77.164062 102.109375 77.523438 C 101.871094 77.839844 101.472656 78.335938 100.917969 79.011719 C 100.398438 79.6875 99.804688 80.460938 99.128906 81.335938 C 98.453125 82.210938 97.71875 83.125 96.921875 84.078125 C 96.167969 84.992188 95.433594 85.847656 94.71875 86.640625 C 94.003906 87.398438 93.328125 88.03125 92.691406 88.550781 C 92.054688 89.027344 91.539062 89.265625 91.140625 89.265625 C 90.664062 89.265625 90.285156 89.164062 90.007812 88.964844 C 89.769531 88.726562 89.589844 88.429688 89.472656 88.074219 C 89.351562 87.714844 89.273438 87.335938 89.234375 86.941406 C 89.234375 86.503906 89.253906 86.105469 89.292969 85.746094 C 89.414062 85.152344 89.511719 84.65625 89.589844 84.257812 C 89.671875 83.859375 89.730469 83.523438 89.769531 83.246094 C 89.847656 82.925781 89.910156 82.628906 89.949219 82.351562 C 90.027344 82.03125 90.109375 81.695312 90.1875 81.335938 C 90.585938 79.507812 90.902344 78.019531 91.140625 76.867188 C 91.378906 75.714844 91.558594 74.800781 91.675781 74.125 C 91.796875 73.449219 91.855469 72.992188 91.855469 72.753906 C 91.855469 72.476562 91.835938 72.296875 91.796875 72.21875 C 91.71875 72.175781 91.558594 72.15625 91.320312 72.15625 C 91.121094 72.15625 90.824219 72.175781 90.425781 72.21875 C 90.066406 72.257812 89.609375 72.335938 89.054688 72.457031 C 89.890625 71.183594 90.207031 70.171875 90.007812 69.414062 C 89.847656 68.621094 89.492188 68.023438 88.9375 67.628906 C 88.261719 67.191406 87.386719 66.871094 86.3125 66.675781 Z M 84.910156 70.402344 C 85.0625 70.410156 85.191406 70.460938 85.300781 70.546875 C 85.417969 70.707031 85.5 70.925781 85.539062 71.203125 C 85.578125 71.441406 85.558594 71.78125 85.476562 72.21875 C 85.4375 72.613281 85.261719 73.132812 84.941406 73.765625 C 85.261719 73.6875 85.578125 73.628906 85.894531 73.589844 C 86.214844 73.546875 86.472656 73.488281 86.671875 73.410156 C 86.910156 73.328125 87.128906 73.269531 87.328125 73.230469 C 87.484375 73.191406 87.503906 73.507812 87.386719 74.183594 C 87.304688 74.820312 87.167969 75.632812 86.96875 76.628906 C 86.769531 77.621094 86.53125 78.65625 86.253906 79.726562 C 85.976562 80.800781 85.738281 81.734375 85.539062 82.527344 C 85.5 82.726562 85.320312 83.046875 85 83.484375 C 84.722656 83.917969 84.347656 84.398438 83.867188 84.914062 C 83.433594 85.429688 82.914062 85.925781 82.320312 86.402344 C 81.761719 86.878906 81.1875 87.277344 80.589844 87.59375 C 80.035156 87.875 79.476562 88.03125 78.921875 88.074219 C 78.367188 88.074219 77.867188 87.855469 77.433594 87.417969 C 77.191406 87.179688 77.035156 86.679688 76.953125 85.925781 C 76.875 85.132812 76.894531 84.21875 77.015625 83.183594 C 77.171875 82.152344 77.433594 81.058594 77.789062 79.90625 C 78.148438 78.714844 78.625 77.601562 79.21875 76.570312 C 80.648438 74.066406 81.902344 72.355469 82.976562 71.441406 C 83.808594 70.726562 84.453125 70.378906 84.910156 70.402344 Z M 84.910156 70.402344 "/>
<path style=" stroke:none;fill-rule:evenodd;fill:rgb(100%,100%,100%);fill-opacity:1;" d="M 38.796875 68.074219 C 36.09375 68.039062 36.09375 72.113281 38.796875 72.074219 L 48.679688 72.074219 C 48.6875 72.078125 48.964844 72.109375 49.265625 72.273438 C 49.570312 72.441406 49.75 72.460938 49.800781 73.210938 L 49.800781 73.191406 L 50.046875 78.386719 C 49.585938 78.210938 49.277344 78.132812 49.277344 78.132812 L 49.042969 78.074219 L 39.796875 78.074219 C 35.464844 78.074219 33.902344 82.441406 33.902344 82.441406 L 33.796875 82.75 L 33.796875 85.074219 C 33.796875 88.109375 35.226562 90.203125 36.738281 91.144531 C 38.246094 92.089844 39.796875 92.074219 39.796875 92.074219 L 47.390625 92.074219 L 50.78125 89.871094 L 50.800781 90.191406 C 50.890625 92.929688 55.023438 92.6875 54.792969 89.957031 L 53.792969 72.949219 L 53.792969 72.9375 C 53.652344 70.875 52.332031 69.394531 51.1875 68.765625 C 50.039062 68.136719 48.929688 68.078125 48.929688 68.078125 L 48.863281 68.074219 Z M 39.796875 82.074219 L 48.441406 82.074219 C 48.546875 82.105469 48.964844 82.21875 49.480469 82.558594 C 50.035156 82.929688 50.355469 83.246094 50.375 83.914062 L 50.511719 85.277344 L 46.207031 88.074219 L 39.796875 88.074219 C 39.796875 88.074219 39.347656 88.0625 38.859375 87.753906 C 38.367188 87.449219 37.796875 87.042969 37.796875 85.074219 L 37.796875 83.511719 C 37.898438 83.207031 38.332031 82.074219 39.796875 82.074219 Z M 39.796875 82.074219 "/>
<path style=" stroke:none;fill-rule:nonzero;fill:rgb(14.117648%,12.156863%,19.215687%);fill-opacity:1;" d="M 12 106 L 12 116 L 20 116 L 20 114 L 14 114 L 14 108 L 20 108 L 20 106 Z M 12 106 "/>
<use xlink:href="#surface88644" mask="url(#mask0)"/>
<use xlink:href="#surface88655" mask="url(#mask1)"/>
</g>
</svg>
